HIERARCHY
ROOT Hips
{
	OFFSET -3.958830 18.904000 13.208200
	CHANNELS 6 Xposition Yposition Zposition Zrotation Yrotation Xrotation 
	JOINT LHipJoint
	{
		OFFSET 0.000000 0.000000 0.000000
		CHANNELS 3 Zrotation Yrotation Xrotation
		JOINT LeftUpLeg
		{
			OFFSET 1.800000 -1.400000 0.085000
			CHANNELS 3 Zrotation Yrotation Xrotation
			JOINT LeftLeg
			{
				OFFSET 2.215000 -6.000000 0.000000
				CHANNELS 3 Zrotation Yrotation Xrotation
				JOINT LeftFoot
				{
					OFFSET 2.500000 -6.900000 0.000000
					CHANNELS 3 Zrotation Yrotation Xrotation
					JOINT LeftToeBase
					{
						OFFSET 0.200000 -0.500000 1.950000
						CHANNELS 3 Zrotation Yrotation Xrotation
						End Site
						{
							OFFSET 0.000000 0.000000 0.000000
						}
					}
				}
			}
		}
	}
	JOINT RHipJoint
	{
		OFFSET 0.000000 0.000000 0.000000
		CHANNELS 3 Zrotation Yrotation Xrotation
		JOINT RightUpLeg
		{
			OFFSET -1.800000 -1.400000 0.085000
			CHANNELS 3 Zrotation Yrotation Xrotation
			JOINT RightLeg
			{
				OFFSET -2.215000 -6.000000 0.000000
				CHANNELS 3 Zrotation Yrotation Xrotation
				JOINT RightFoot
				{
					OFFSET -2.500000 -6.900000 0.000000
					CHANNELS 3 Zrotation Yrotation Xrotation
					JOINT RightToeBase
					{
						OFFSET -0.200000 -0.500000 1.950000
						CHANNELS 3 Zrotation Yrotation Xrotation
						End Site
						{
							OFFSET 0.000000 0.000000 0.000000
						}
					}
				}
			}
		}
	}
	JOINT LowerBack
	{
		OFFSET 0.000000 0.000000 0.000000
		CHANNELS 3 Zrotation Yrotation Xrotation
		JOINT Spine
		{
			OFFSET -0.087000 1.940000 -0.288900
			CHANNELS 3 Zrotation Yrotation Xrotation
			JOINT Spine1
			{
				OFFSET 0.000000 1.950000 0.060000
				CHANNELS 3 Zrotation Yrotation Xrotation
				JOINT Neck
				{
					OFFSET 0.000000 0.000000 0.000000
					CHANNELS 3 Zrotation Yrotation Xrotation
					JOINT Neck1
					{
						OFFSET 0.000000 1.600000 0.340000
						CHANNELS 3 Zrotation Yrotation Xrotation
						JOINT Head
						{
							OFFSET 0.000000 1.667000 -0.240000
							CHANNELS 3 Zrotation Yrotation Xrotation
							End Site
							{
								OFFSET 0.000000 0.000000 0.000000
							}
						}
					}
				}
				JOINT LeftShoulder
				{
					OFFSET 0.000000 0.000000 0.000000
					CHANNELS 3 Zrotation Yrotation Xrotation
					JOINT LeftArm
					{
						OFFSET 2.700000 1.550000 -0.730000
						CHANNELS 3 Zrotation Yrotation Xrotation
						JOINT LeftForeArm
						{
							OFFSET 5.450000 0.000000 0.000000
							CHANNELS 3 Zrotation Yrotation Xrotation
							JOINT LeftHand
							{
								OFFSET 3.450000 0.000000 0.000000
								CHANNELS 3 Zrotation Yrotation Xrotation
								JOINT LeftHandIndex1
								{
									OFFSET 0.750000 0.000000 0.000000
									CHANNELS 3 Zrotation Yrotation Xrotation
									End Site
									{
										OFFSET 0.000000 0.000000 0.000000
									}
								}
							}
						}
					}
				}
				JOINT RightShoulder
				{
					OFFSET 0.000000 0.000000 0.000000
					CHANNELS 3 Zrotation Yrotation Xrotation
					JOINT RightArm
					{
						OFFSET -2.700000 1.550000 -0.730000
						CHANNELS 3 Zrotation Yrotation Xrotation
						JOINT RightForeArm
						{
							OFFSET -5.450000 0.000000 0.000000
							CHANNELS 3 Zrotation Yrotation Xrotation
							JOINT RightHand
							{
								OFFSET -3.450000 0.000000 0.000000
								CHANNELS 3 Zrotation Yrotation Xrotation
								JOINT RightHandIndex1
								{
									OFFSET -0.750000 0.000000 0.000000
									CHANNELS 3 Zrotation Yrotation Xrotation
									End Site
									{
										OFFSET 0.000000 0.000000 0.000000
									}
								}
							}
						}
					}
				}
			}
		}
	}
}
MOTION
Frames: 13
Frame Time: 0.016667
-0.768760 16.970330 -0.053120 -3.029451 -5.715357 6.970574 -15.207937 11.041302 4.781414 11.390926 -3.855428 -45.591678 -7.793599 12.936570 40.787092 1.173424 11.372810 2.007981 -4.315330 -4.598250 -4.737240 18.596061 -10.714907 2.077325 -4.275613 0.638698 -7.405248 7.143974 -7.890602 13.295957 0.211951 -6.029892 1.796105 -2.488400 5.125660 2.021360 -4.036141 0.605816 -7.374602 7.608168 8.283271 3.163634 -2.380149 7.652145 0.986025 1.243531 0.855615 -6.536027 1.322640 3.394279 30.166415 -8.218480 1.161490 45.945360 -30.473299 -5.388011 3.497778 -39.247246 2.132294 -4.826577 -7.910252 -24.014442 -1.125566 -7.137306 2.780044 -0.643820 2.714710 -1.332630 0.479510 27.995258 6.821767 5.324830 45.881557 2.659875 -9.130602 17.727031 35.795402 3.992426 2.064698 -0.691297 -0.890180 1.007770 3.379870 1.994290 
-0.769320 16.935990 -0.057720 -3.456238 -5.466569 5.948986 -15.181254 11.075554 4.870765 12.013135 -3.929256 -45.393324 -7.973993 12.917103 40.844579 0.475865 10.989370 1.786658 -3.061620 -3.558100 -3.470730 18.591438 -10.738605 2.147172 -4.186117 0.579204 -6.188535 7.666187 -7.736467 13.549785 0.117459 -5.739159 2.319369 -1.765240 3.962680 1.590680 -4.061426 0.579404 -7.624200 8.637922 7.818881 4.807879 -2.730710 7.642388 1.552025 1.553747 0.354564 -7.329733 0.341046 3.685886 32.838162 -7.338000 0.673250 35.724180 -28.776460 -6.329396 3.261634 -40.699073 1.983188 -4.686259 -7.020813 -24.085731 -1.385016 -6.431864 2.587102 -0.111490 2.204200 -1.169640 0.485350 25.583236 8.388293 5.706908 47.483042 3.384132 -8.904220 16.948644 36.117581 3.718766 1.643593 -0.833892 -0.969720 0.908070 2.605680 1.179570 
-0.760560 16.879350 -0.100830 -4.455825 -4.941247 1.440674 -15.058948 11.523658 4.915059 12.672022 -3.832025 -43.041605 -7.238308 12.283474 41.337981 -0.234210 9.141454 1.481342 -0.587310 -0.919260 -0.805270 18.537357 -10.912144 2.457956 -4.238269 -0.282863 -1.852133 8.636722 -7.332505 14.324235 -0.467913 -4.837842 2.827765 -0.404540 1.262880 0.628390 -4.120008 0.224064 -8.383878 11.800321 5.541795 13.566401 -4.523851 7.595449 1.292088 2.079531 -2.304799 -8.626074 -5.746167 2.676420 42.961524 -3.190980 -1.234380 -2.797820 -24.637122 -5.515032 1.839398 -43.736460 -0.883387 -4.775201 -6.597928 -23.752709 -1.080671 -4.574752 2.357423 0.681840 0.642730 -0.208510 0.211320 19.801031 10.721973 5.875816 51.004058 7.016985 -7.973662 16.015499 36.236395 3.110750 1.695595 -0.891592 -0.532730 0.658510 0.914020 0.076740 
-0.765090 16.884320 -0.077780 -4.606272 -4.920664 -0.317382 -14.994767 11.764220 4.729872 11.860077 -3.606475 -41.492677 -6.583083 11.142268 38.556101 -0.302533 7.850509 1.734800 -0.126610 -0.369820 -0.286380 18.516138 -11.063464 2.615647 -4.407963 -0.791793 0.245086 8.698571 -7.139349 14.266888 -0.573100 -4.681600 2.886740 -0.159040 0.622830 0.271550 -4.159354 0.164243 -8.476057 12.079049 4.892303 16.091180 -4.782856 7.727451 1.580781 1.682355 -3.931513 -9.694174 -9.703248 1.950922 45.970700 0.316880 -3.288540 -11.065590 -23.589820 -6.641532 2.275710 -43.640787 -1.480223 -5.154722 -5.818407 -23.834630 -0.907814 -4.022580 2.430405 0.719940 0.201710 -0.039040 0.111100 19.565498 13.718789 6.877814 49.962228 7.859249 -8.090167 14.351828 36.446518 2.459598 1.877003 -0.955004 -0.385480 0.550040 0.507250 -0.079210 
-0.771170 16.882270 -0.034270 -4.512380 -5.006366 -1.159252 -14.966104 11.918532 4.552940 10.967936 -3.346245 -40.486037 -6.067580 10.084564 35.503636 -0.428932 6.973638 1.997711 -0.004540 -0.228850 -0.168240 18.492499 -11.169297 2.718253 -4.787724 -1.025693 1.584009 8.818965 -7.115077 13.871000 -0.632988 -4.698637 2.868636 -0.082590 0.453010 0.152410 -4.151365 0.144407 -8.464269 11.635932 4.869152 16.912491 -4.623304 7.953608 2.387994 1.387920 -4.827944 -10.684004 -11.898612 1.623600 47.287744 2.406720 -4.831220 -14.194730 -22.156437 -8.234809 3.015905 -43.762197 -1.849823 -5.225135 -4.798994 -23.685900 -1.066301 -3.830881 2.439232 0.768040 0.050450 0.010720 0.097460 18.932196 16.362768 7.782397 49.236221 8.998769 -7.973075 12.203303 36.134171 1.795811 1.911900 -0.953418 -0.374620 0.549120 0.404270 -0.118690 
-0.777940 16.873600 0.024570 -4.561171 -4.974455 -1.462727 -14.913312 12.044743 4.343016 10.078493 -2.971480 -39.466525 -5.366175 8.917633 31.929876 -0.534121 6.102759 2.307877 0.040560 -0.173400 -0.155750 18.502962 -11.286813 2.820523 -4.885955 -1.189069 2.479459 8.914371 -7.104268 13.450083 -0.675095 -4.743346 2.849719 -0.057970 0.420140 0.114380 -4.230202 0.206536 -8.403351 11.599744 4.902296 17.027914 -4.797014 8.118458 3.113677 0.997250 -5.654822 -11.401365 -13.753222 1.823746 47.844095 4.884350 -6.149950 -15.549750 -20.855063 -9.433869 3.643390 -43.562946 -2.167125 -5.097503 -3.923962 -23.504507 -1.210290 -3.747431 2.455914 0.782710 -0.010920 0.028300 0.115960 18.558576 18.319483 8.394926 48.436805 10.320562 -7.481488 9.989095 35.213317 1.199364 1.927812 -0.945688 -0.363510 0.561260 0.367970 -0.104010 
-0.779110 16.862530 0.097070 -4.897262 -4.905884 -1.649702 -14.864211 12.162127 4.127664 9.391250 -2.509300 -38.425382 -4.432839 7.790065 28.428593 -0.630637 5.305315 2.601201 0.062310 -0.146900 -0.159660 18.516841 -11.394177 2.926865 -4.733681 -1.381991 3.351751 8.954973 -7.092827 12.975235 -0.707041 -4.801413 2.835649 -0.046110 0.412010 0.098110 -4.310671 0.281633 -8.346141 11.906162 4.950928 16.856865 -4.824712 8.272166 4.076973 0.868942 -6.137084 -12.203536 -14.766606 1.862813 48.410370 6.351460 -7.083640 -16.078210 -19.720405 -10.946293 4.388752 -43.663553 -2.353175 -4.995030 -2.746439 -23.173649 -1.437573 -3.703695 2.464778 0.787490 -0.037630 0.034030 0.130920 17.868268 20.359065 9.007210 47.157046 11.840958 -6.586656 8.082974 33.462747 0.765059 1.933034 -0.933259 -0.356250 0.569460 0.352250 -0.090910 
-0.769820 16.850840 0.177660 -5.017671 -4.872380 -1.913277 -14.840850 12.294575 3.951402 8.618564 -2.140710 -37.376934 -3.713315 6.932934 25.482444 -0.699798 4.680509 2.839060 0.060730 -0.137080 -0.182730 18.504911 -11.471141 3.009361 -4.814407 -1.538083 4.319809 8.756645 -7.049812 12.542947 -0.726898 -4.861967 2.820358 -0.040220 0.420120 0.077880 -4.317661 0.255458 -8.310153 11.907595 5.067631 16.798996 -4.583538 8.473883 5.022837 0.857689 -6.694551 -13.119311 -15.991565 2.106252 48.856110 7.338800 -7.801430 -16.209970 -19.293272 -12.686713 5.164916 -43.145016 -2.257308 -4.836057 -1.707877 -22.768945 -1.613207 -3.674306 2.466583 0.783090 -0.051640 0.028320 0.139170 17.728776 22.719333 9.650079 44.282624 13.552066 -5.121915 6.966365 30.481103 0.694909 1.948200 -0.906364 -0.358030 0.586790 0.354410 -0.074510 
-0.749750 16.832980 0.271280 -5.502846 -4.846966 -1.914542 -14.803625 12.364687 3.814158 8.156011 -1.845455 -36.506029 -3.186069 6.263274 22.933371 -0.747916 4.203129 3.032973 0.053000 -0.146340 -0.197310 18.522699 -11.520000 3.102374 -4.520831 -1.821779 5.339337 8.473479 -6.939280 11.630074 -0.748433 -4.895699 2.825391 -0.046570 0.431600 0.062140 -4.389496 0.276720 -8.295047 12.599773 5.094561 16.488615 -4.735361 8.616198 5.582818 0.934605 -6.938375 -13.862370 -16.589157 2.155175 49.347698 8.105320 -8.388480 -16.071790 -18.863558 -13.831225 5.753980 -42.649595 -1.899242 -4.812103 -1.335526 -22.829247 -1.667963 -3.651557 2.459084 0.785580 -0.058240 0.022020 0.148280 17.289393 24.104895 10.171274 42.630034 14.314460 -4.256326 6.670756 28.873497 0.768151 1.956281 -0.882830 -0.365760 0.602960 0.354120 -0.066430 
-0.730170 16.810520 0.370760 -5.727115 -4.872300 -1.710556 -14.781801 12.390368 3.744192 7.618576 -1.787738 -35.947086 -2.949158 5.855161 21.256273 -0.789778 3.909749 3.156539 0.030040 -0.181340 -0.210540 18.531287 -11.553229 3.158605 -4.593545 -1.952725 6.033641 8.402275 -6.904411 10.957494 -0.758204 -4.930506 2.820333 -0.061710 0.438700 0.044310 -4.428279 0.310676 -8.294847 12.847777 5.271679 16.070151 -4.962987 8.832103 5.788843 0.992619 -7.005465 -14.441615 -16.818414 1.968540 49.574278 8.626580 -8.893130 -15.989390 -18.299654 -14.558200 6.207347 -42.158680 -1.377989 -4.934144 -1.174880 -23.328093 -1.696063 -3.630767 2.446906 0.801130 -0.066910 0.011800 0.144510 16.720475 24.935657 10.588047 42.143821 14.593300 -3.768568 5.980639 27.858900 0.701025 1.961010 -0.856546 -0.388120 0.615640 0.365840 -0.071530 
-0.712240 16.784590 0.477680 -5.785306 -5.024974 -1.337762 -14.774416 12.404014 3.688982 7.082065 -1.795915 -35.302700 -2.955180 5.593146 19.926366 -0.801910 3.697452 3.251522 0.006770 -0.217910 -0.215590 18.525861 -11.600543 3.190003 -4.793417 -1.982302 6.414635 8.255840 -6.882515 10.612616 -0.757197 -4.962069 2.815183 -0.084940 0.444860 0.042960 -4.423344 0.382929 -8.292172 12.600381 5.682702 15.343697 -4.933234 9.102526 5.969409 1.047459 -6.642882 -14.907215 -15.993293 1.314925 49.428752 8.491740 -9.225460 -15.288800 -17.792143 -15.323289 6.661106 -41.422340 -0.869593 -4.905704 -1.758852 -23.387377 -1.552716 -3.628486 2.451742 0.796290 -0.061660 0.001180 0.139710 16.216135 25.510885 10.944058 42.122449 14.594226 -3.413918 5.268025 27.115251 0.586868 1.969453 -0.852772 -0.393850 0.607710 0.371110 -0.073790 
-0.687470 16.758140 0.585480 -5.698684 -5.188851 -0.905726 -14.766733 12.392916 3.651178 6.427295 -1.931347 -34.871420 -2.736305 5.401458 19.383910 -0.825497 3.580105 3.306090 -0.029060 -0.267740 -0.233770 18.526007 -11.664778 3.188442 -5.176721 -1.895419 6.480669 8.129262 -6.919103 10.720069 -0.733633 -5.008787 2.808253 -0.106160 0.460550 0.041450 -4.429222 0.509970 -8.267397 12.289947 6.128173 14.456042 -4.985146 9.379919 6.348685 1.097850 -6.143253 -15.302541 -14.727749 0.553823 48.678873 7.886430 -9.337690 -14.225590 -16.900922 -16.227450 7.092611 -40.751792 -0.800793 -4.602916 -2.891938 -22.799347 -1.312313 -3.655480 2.453073 0.785110 -0.038970 -0.027820 0.126020 15.322280 26.083872 11.311637 42.673194 14.509305 -3.169594 4.354104 26.539648 0.382576 1.960224 -0.855963 -0.409810 0.597070 0.392910 -0.083380 
-0.660480 16.742160 0.696280 -5.396389 -5.308191 -0.608124 -14.781336 12.400588 3.630554 5.591000 -2.163281 -34.572152 -2.322006 5.291141 19.686888 -0.833483 3.550187 3.333083 -0.054040 -0.309740 -0.244780 18.504781 -11.723667 3.168672 -5.499510 -1.818136 6.552465 7.537690 -6.880886 11.017413 -0.714084 -5.034190 2.806420 -0.126280 0.478390 0.049750 -4.371948 0.587834 -8.238964 11.463861 6.627889 13.717784 -4.754360 9.656600 6.609787 1.097809 -5.682413 -15.632111 -13.642314 -0.220963 47.958527 7.193120 -9.520870 -13.191910 -16.252755 -17.037226 7.413806 -40.126587 -0.933525 -4.204337 -3.794967 -21.825718 -1.124816 -3.682778 2.455302 0.776720 -0.017030 -0.048710 0.123180 14.803871 26.600030 11.665451 43.162924 14.194414 -2.986471 3.573901 25.790969 0.212746 1.955093 -0.866223 -0.420070 0.586250 0.405270 -0.088340 
